<svg width="1030" height="284" viewBox="0 0 1030 284" fill="none" xmlns="http://www.w3.org/2000/svg">
<g clip-path="url(#clip0)">
<g clip-path="url(#clip1)">
<path d="M483.506 296.007C458.999 296.007 439.059 276.152 439.059 251.581C439.059 227.085 458.923 207.154 483.506 207.154C508.013 207.154 527.953 227.009 527.953 251.581C527.953 276.152 508.089 296.007 483.506 296.007Z" fill="#00443F"/>
<path d="M468.587 239.561L484.723 229.595C490.659 225.868 498.422 226.781 503.369 231.725C508.316 236.67 509.229 244.277 505.576 250.287L495.682 266.49C489.061 277.369 473.991 279.195 464.934 270.218C456.03 261.241 457.78 246.255 468.587 239.561Z" fill="white"/>
<path d="M479.02 266.718C484.863 266.718 489.599 261.984 489.599 256.144C489.599 250.304 484.863 245.57 479.02 245.57C473.178 245.57 468.441 250.304 468.441 256.144C468.441 261.984 473.178 266.718 479.02 266.718Z" fill="#FFCB4A"/>
<path d="M607.33 296.007C582.823 296.007 562.883 276.152 562.883 251.581C562.883 227.085 582.747 207.154 607.33 207.154C631.837 207.154 651.777 227.009 651.777 251.581C651.777 276.152 631.837 296.007 607.33 296.007Z" fill="#37A564"/>
<path d="M607.177 280.945C618.064 280.945 626.889 272.123 626.889 261.242C626.889 250.36 618.064 241.539 607.177 241.539C596.29 241.539 587.465 250.36 587.465 261.242C587.465 272.123 596.29 280.945 607.177 280.945Z" fill="#F0C1F4"/>
<path d="M606.947 217.805V251.505H571.633L606.947 217.805Z" fill="#000099"/>
<path d="M638.363 239.779L617.566 223.141L612.287 229.733L633.083 246.371L638.363 239.779Z" fill="white"/>
<path d="M483.506 82.9286C458.999 82.9286 439.059 63.0737 439.059 38.5024C439.059 14.0071 458.923 -5.92383 483.506 -5.92383C508.013 -5.92383 527.953 13.931 527.953 38.5024C527.953 62.9977 508.089 82.9286 483.506 82.9286Z" fill="#37A564"/>
<path d="M493.475 24.0488C488.757 24.0488 484.875 20.3212 484.875 15.4526C484.875 10.584 488.757 6.85645 493.475 6.85645C498.27 6.85645 502.152 10.584 502.152 15.4526C502.152 20.3212 498.27 24.0488 493.475 24.0488Z" fill="white"/>
<path d="M473.155 24.0488C468.436 24.0488 464.555 20.3212 464.555 15.4526C464.555 10.584 468.436 6.85645 473.155 6.85645C477.95 6.85645 481.831 10.584 481.831 15.4526C481.831 20.3212 477.95 24.0488 473.155 24.0488Z" fill="white"/>
<path d="M489.138 67.4862V63.074C486.854 65.5844 482.516 68.4751 475.514 68.4751C466.305 68.4751 462.348 62.9979 462.348 56.1514V27.8525H477.113V49.8374C477.113 53.8693 479.244 55.3907 482.821 55.3907C486.093 55.3907 487.844 53.641 489.062 52.2717V27.8525H503.827V67.4862H489.138Z" fill="#F0C1F4"/>
<path d="M607.33 82.9286C582.823 82.9286 562.883 63.0737 562.883 38.5024C562.883 14.0071 582.747 -5.92383 607.33 -5.92383C631.837 -5.92383 651.777 13.931 651.777 38.5024C651.777 62.9977 631.837 82.9286 607.33 82.9286Z" fill="#000099"/>
<path d="M612.049 3.43262H602.535V21.3096H612.049V3.43262Z" fill="#43B7FF"/>
<path d="M631.608 51.9674L612.733 24.1249L612.657 24.0488H602.002L601.926 24.1249L583.051 51.9674V67.7904L607.329 32.0364L631.608 67.7904V51.9674Z" fill="white"/>
<path d="M607.329 36.8284C613.256 36.8284 618.06 32.0261 618.06 26.1022C618.06 20.1783 613.256 15.376 607.329 15.376C601.402 15.376 596.598 20.1783 596.598 26.1022C596.598 32.0261 601.402 36.8284 607.329 36.8284Z" fill="#F75605"/>
<path d="M670.885 189.43C646.378 189.43 626.438 169.575 626.438 145.003C626.438 120.508 646.302 100.577 670.885 100.577C695.392 100.577 715.332 120.432 715.332 145.003C715.332 169.575 695.468 189.43 670.885 189.43Z" fill="#00443F"/>
<path d="M677.396 112.642L672.66 117.376L698.6 143.303L703.335 138.569L677.396 112.642Z" fill="white"/>
<path d="M668.306 121.677L663.57 126.41L689.51 152.337L694.246 147.604L668.306 121.677Z" fill="white"/>
<path d="M652.111 137.885L647.375 142.618L673.315 168.545L678.05 163.812L652.111 137.885Z" fill="white"/>
<path d="M643.095 147L638.359 151.733L664.299 177.661L669.034 172.927L643.095 147Z" fill="white"/>
<path d="M673.775 142.189C668.295 136.712 668.295 127.735 673.775 122.182L680.472 115.487L674.536 109.554L667.838 116.248C663.576 120.508 661.217 126.137 661.217 132.147C661.217 138.157 663.576 143.786 667.838 148.046C673.318 153.524 673.318 162.5 667.838 168.053L661.141 174.748L667.077 180.681L673.775 173.987C682.603 165.239 682.603 150.937 673.775 142.189Z" fill="#37A564"/>
<path d="M641.202 154.74L635.266 148.807L641.963 142.112C650.716 133.364 665.024 133.364 673.777 142.112C676.44 144.775 680.018 146.22 683.747 146.22C687.552 146.22 691.053 144.775 693.717 142.112L700.415 135.418L706.351 141.352L699.654 148.046C695.391 152.306 689.759 154.664 683.747 154.664C677.734 154.664 672.102 152.306 667.84 148.046C662.36 142.569 653.379 142.569 647.824 148.046L641.202 154.74Z" fill="#F0C1F4"/>
<path d="M853.811 82.63C829.34 82.63 809.496 62.7857 809.496 38.315C809.496 13.8443 829.34 -6 853.811 -6C878.282 -6 898.126 13.8443 898.126 38.315C898.126 62.7857 878.282 82.63 853.811 82.63Z" fill="#4F2C5E"/>
<path d="M886.447 33.5639H880.455V22.5826H855.337V14.083H852.289V22.5826H827.171V33.5639H820.852V46.9116H827.171V58.2651H880.455V46.9116H886.447V33.5639Z" fill="#43B7FF"/>
<path d="M853.811 17.1593C856.659 17.1593 858.969 14.8499 858.969 12.001C858.969 9.15221 856.659 6.84277 853.811 6.84277C850.962 6.84277 848.652 9.15221 848.652 12.001C848.652 14.8499 850.962 17.1593 853.811 17.1593Z" fill="#F0C1F4"/>
<path d="M843.416 46.6378C846.847 46.6378 849.629 43.8562 849.629 40.4249C849.629 36.9936 846.847 34.2119 843.416 34.2119C839.985 34.2119 837.203 36.9936 837.203 40.4249C837.203 43.8562 839.985 46.6378 843.416 46.6378Z" fill="white"/>
<path d="M864.209 46.6378C867.64 46.6378 870.422 43.8562 870.422 40.4249C870.422 36.9936 867.64 34.2119 864.209 34.2119C860.778 34.2119 857.996 36.9936 857.996 40.4249C857.996 43.8562 860.778 46.6378 864.209 46.6378Z" fill="white"/>
<path d="M917.811 101C893.334 101 873.496 120.843 873.496 145.315C873.496 169.792 893.339 189.63 917.811 189.63C942.288 189.63 962.126 169.787 962.126 145.315C962.126 120.843 942.288 101 917.811 101Z" fill="#000099"/>
<path d="M938.235 146.693C938.215 131.734 926.088 119.617 911.123 119.617L911.108 119.638V119.617H892.13V138.58L892.109 138.596C892.109 153.571 904.246 165.707 919.221 165.707H938.235V146.693Z" fill="#37A564"/>
<path d="M903.765 129.357L901.848 131.274L942.668 172.094L944.585 170.177L903.765 129.357Z" fill="white"/>
<path d="M977.811 82.63C953.334 82.63 933.496 62.7869 933.496 38.315C933.496 13.8431 953.339 -6 977.811 -6C1002.29 -6 1022.13 13.8431 1022.13 38.315C1022.13 62.792 1002.29 82.63 977.811 82.63Z" fill="#43B7FF"/>
<path d="M991.137 33.4576L982.811 6.56445L977.821 12.348L971.294 8.38039L968.344 15.4254L960.907 13.6807L960.277 21.2903L952.667 21.9211L954.412 29.3578L947.367 32.308L951.334 38.8342L945.551 43.8243L972.444 52.1511L991.137 33.4576Z" fill="white"/>
<path d="M959.672 41.8882L958.98 43.3506L986.036 56.1375L986.727 54.675L959.672 41.8882Z" fill="white"/>
<path d="M959.093 31.6592L958.16 32.9805L987.684 53.8366L988.617 52.5154L959.093 31.6592Z" fill="white"/>
<path d="M966.488 26.3631L965.344 27.5068L989.439 51.6017L990.582 50.4579L966.488 26.3631Z" fill="white"/>
<path d="M973.737 21.6194L972.418 22.5557L991.396 49.2948L992.715 48.3585L973.737 21.6194Z" fill="white"/>
<path d="M982.029 19.391L980.566 20.082L993.344 47.1233L994.806 46.4323L982.029 19.391Z" fill="white"/>
<path d="M998.636 59.6492C995.223 63.0624 989.694 63.0624 986.286 59.6492L981.637 55L993.982 42.6445L998.631 47.2937C1002.04 50.7069 1002.04 56.2361 998.636 59.6492Z" fill="#F75605"/>
<path d="M995.472 44.1389L983.121 56.4902L985.247 58.6159L997.598 46.2646L995.472 44.1389Z" fill="#000099"/>
<path d="M793.811 189.63C769.336 189.63 749.496 169.79 749.496 145.315C749.496 120.84 769.336 101 793.811 101C818.286 101 838.126 120.84 838.126 145.315C838.126 169.79 818.286 189.63 793.811 189.63Z" fill="#F0C1F4"/>
<path d="M793.809 167.867C815.092 167.867 832.345 157.77 832.345 145.315C832.345 132.86 815.092 122.764 793.809 122.764C772.527 122.764 755.273 132.86 755.273 145.315C755.273 157.77 772.527 167.867 793.809 167.867Z" fill="white"/>
<path d="M793.812 164.646C804.489 164.646 813.144 155.991 813.144 145.315C813.144 134.638 804.489 125.983 793.812 125.983C783.135 125.983 774.48 134.638 774.48 145.315C774.48 155.991 783.135 164.646 793.812 164.646Z" fill="#00443F"/>
<path d="M853.811 295.63C829.331 295.63 809.496 275.795 809.496 251.315C809.496 226.835 829.331 207 853.811 207C878.291 207 898.126 226.835 898.126 251.315C898.126 275.795 878.291 295.63 853.811 295.63Z" fill="#C58130"/>
<path d="M823.367 229.858V274.616H884.256V229.858H823.367Z" fill="#000099"/>
<path d="M853.809 233.554C846.417 226.162 834.435 226.162 827.043 233.554V270.955H880.575V233.554C873.184 226.162 861.201 226.162 853.809 233.554Z" fill="white"/>
<path d="M880.577 270.938C873.522 263.883 862.266 263.564 854.839 269.998V233.11H852.801V269.998C845.373 263.564 834.117 263.883 827.062 270.938H880.577Z" fill="#43B7FF"/>
<path d="M977.811 295.63C953.334 295.63 933.496 275.787 933.496 251.315C933.496 226.843 953.339 207 977.811 207C1002.29 207 1022.13 226.843 1022.13 251.315C1022.13 275.792 1002.29 295.63 977.811 295.63Z" fill="#4F2C5E"/>
<path d="M1003.39 223.775H952.074V231.115H1003.39V223.775Z" fill="white"/>
<path d="M996.082 264.19V238.426H988.742V264.19H982.287V238.426H973.172V264.19H966.717V238.426H959.377V264.19C959.377 268.229 956.101 271.504 952.062 271.504H1003.39C999.358 271.504 996.082 268.229 996.082 264.19Z" fill="white"/>
<path d="M989.626 238.425H996.081C996.081 234.386 999.357 231.11 1003.4 231.11H952.066C956.105 231.11 959.381 234.386 959.381 238.425H965.836V271.504H952.066V278.844H1003.39V271.504H989.626V238.425ZM966.36 271.504C970.165 271.229 973.171 268.065 973.171 264.189V238.425H982.286V264.189C982.286 268.065 985.292 271.229 989.097 271.504H966.36Z" fill="#F0C1F4"/>
<path d="M422.541 189.43C398.034 189.43 378.094 169.575 378.094 145.003C378.094 120.508 397.958 100.577 422.541 100.577C447.048 100.577 466.988 120.432 466.988 145.003C466.988 169.575 447.048 189.43 422.541 189.43Z" fill="#43B7FF"/>
<path d="M440.04 168.434L413.402 141.809L419.11 136.104L451.457 168.434C448.336 171.553 443.237 171.553 440.04 168.434Z" fill="white"/>
<path d="M440.04 121.574L413.402 148.199L419.11 153.905L451.457 121.574C448.336 118.379 443.237 118.379 440.04 121.574Z" fill="white"/>
<path d="M422.234 147.895C423.789 147.895 425.05 146.635 425.05 145.08C425.05 143.526 423.789 142.266 422.234 142.266C420.679 142.266 419.418 143.526 419.418 145.08C419.418 146.635 420.679 147.895 422.234 147.895Z" fill="#1A1A1A"/>
<path d="M407.164 143.102C399.401 143.102 393.16 136.788 393.16 129.105C393.16 121.345 399.477 115.107 407.164 115.107C414.851 115.107 421.168 121.421 421.168 129.105C421.168 136.788 414.851 143.102 407.164 143.102ZM407.164 122.41C403.435 122.41 400.467 125.377 400.467 129.105C400.467 132.832 403.435 135.799 407.164 135.799C410.893 135.799 413.862 132.832 413.862 129.105C413.862 125.377 410.817 122.41 407.164 122.41Z" fill="#FFCB4A"/>
<path d="M407.164 175.052C399.401 175.052 393.16 168.738 393.16 161.055C393.16 153.372 399.477 147.058 407.164 147.058C414.851 147.058 421.168 153.372 421.168 161.055C421.168 168.738 414.851 175.052 407.164 175.052ZM407.164 154.361C403.435 154.361 400.467 157.327 400.467 161.055C400.467 164.782 403.435 167.749 407.164 167.749C410.893 167.749 413.862 164.782 413.862 161.055C413.862 157.327 410.817 154.361 407.164 154.361Z" fill="#FFCB4A"/>
<path d="M731.162 82.9286C706.655 82.9286 686.715 63.0737 686.715 38.5024C686.715 14.0071 706.579 -5.92383 731.162 -5.92383C755.669 -5.92383 775.609 13.931 775.609 38.5024C775.533 62.9977 755.669 82.9286 731.162 82.9286Z" fill="#FFCB4A"/>
<path d="M731.163 63.8349C718.909 63.8349 708.482 55.1626 706.199 43.1432L715.789 41.3936C717.159 48.7726 723.628 54.0976 731.087 54.0976C738.621 54.0976 745.014 48.7726 746.384 41.3936L755.974 43.1432C753.843 55.1626 743.34 63.8349 731.163 63.8349Z" fill="#1A1A1A"/>
<path d="M719.291 35.3832C723.326 35.3832 726.597 32.1136 726.597 28.0803C726.597 24.047 723.326 20.7773 719.291 20.7773C715.256 20.7773 711.984 24.047 711.984 28.0803C711.984 32.1136 715.256 35.3832 719.291 35.3832Z" fill="#1A1A1A"/>
<path d="M742.658 35.3832C746.693 35.3832 749.964 32.1136 749.964 28.0803C749.964 24.047 746.693 20.7773 742.658 20.7773C738.623 20.7773 735.352 24.047 735.352 28.0803C735.352 32.1136 738.623 35.3832 742.658 35.3832Z" fill="#1A1A1A"/>
<path d="M546.752 189.43C522.245 189.43 502.305 169.575 502.305 145.003C502.305 120.508 522.169 100.577 546.752 100.577C571.259 100.577 591.199 120.432 591.199 145.003C591.123 169.575 571.259 189.43 546.752 189.43Z" fill="#F75605"/>
<path d="M568.541 140.697L549.812 121.978L520.644 151.132L539.372 169.851L568.541 140.697Z" fill="#FFCB4A"/>
<path d="M551.93 119.823C557.105 114.65 565.477 114.65 570.652 119.823C575.828 124.996 575.828 133.364 570.652 138.537L551.93 119.823Z" fill="#F0C1F4"/>
<path d="M566.312 142.569L547.59 123.855L551.928 119.823L570.651 138.537L566.312 142.569Z" fill="white"/>
<path d="M539.369 169.803L520.646 151.089L520.57 159.533L530.921 169.803H539.369Z" fill="white"/>
<path d="M530.923 169.803L520.572 159.533L520.496 169.803H530.923Z" fill="#1A1A1A"/>
<path d="M731.162 296.007C706.655 296.007 686.715 276.152 686.715 251.581C686.715 227.085 706.579 207.154 731.162 207.154C755.669 207.154 775.609 227.009 775.609 251.581C775.609 276.152 755.745 296.007 731.162 296.007Z" fill="#F75605"/>
<path d="M731.162 223.054C715.407 223.054 702.621 235.834 702.621 251.581C702.621 267.328 715.407 280.108 731.162 280.108C746.916 280.108 759.703 267.328 759.703 251.581C759.703 235.91 746.916 223.054 731.162 223.054ZM705.589 253.026H713.733C713.961 257.667 715.103 262.155 717.158 266.187H710.08C707.492 262.459 705.894 257.895 705.589 253.026ZM732.684 234.084V227.086C735.5 228.987 738.012 231.422 739.99 234.16H732.684V234.084ZM741.817 237.051C744.1 241.007 745.394 245.495 745.622 250.212H732.684V237.051H741.817ZM729.716 227.009V234.16H722.333C724.312 231.346 726.824 228.911 729.716 227.009ZM729.716 237.051V250.212H716.625C716.853 245.495 718.223 241.007 720.431 237.051H729.716ZM713.733 250.135H705.589C705.894 245.267 707.492 240.779 710.156 236.975H717.234C715.179 241.083 713.961 245.495 713.733 250.135ZM716.625 253.026H729.716V266.187H720.431C718.223 262.231 716.853 257.743 716.625 253.026ZM729.716 269.077V276.228C726.824 274.25 724.312 271.892 722.333 269.077H729.716ZM732.684 276.152V269.077H739.99C737.935 271.816 735.5 274.25 732.684 276.152ZM732.684 266.187V253.026H745.622C745.394 257.743 744.024 262.231 741.817 266.187H732.684ZM748.515 253.026H756.81C756.506 257.895 754.908 262.383 752.244 266.187H745.09C747.145 262.155 748.286 257.667 748.515 253.026ZM748.515 250.135C748.286 245.495 747.145 241.007 745.09 236.975H752.244C754.832 240.779 756.506 245.267 756.81 250.135H748.515ZM749.884 234.084H743.415C741.665 231.27 739.382 228.759 736.794 226.553C741.969 227.77 746.46 230.433 749.884 234.084ZM725.378 226.629C722.79 228.759 720.583 231.27 718.832 234.084H712.515C715.864 230.509 720.354 227.846 725.378 226.629ZM712.515 269.077H718.832C720.583 271.892 722.79 274.402 725.378 276.533C720.354 275.391 715.864 272.729 712.515 269.077ZM736.87 276.609C739.458 274.479 741.665 271.892 743.491 269.153H749.961C746.46 272.805 741.969 275.468 736.87 276.609Z" fill="#000099"/>
<path d="M359.674 296.007C335.167 296.007 315.227 276.152 315.227 251.581C315.227 227.085 335.091 207.154 359.674 207.154C384.181 207.154 404.121 227.009 404.121 251.581C404.121 276.152 384.257 296.007 359.674 296.007Z" fill="#F0C1F4"/>
<path d="M387.987 266.642C387.911 266.414 379.691 222.368 379.691 222.368H339.126L345.747 257.59C344.605 257.209 343.312 256.981 342.018 256.981C335.625 256.981 330.449 262.154 330.449 268.544C330.449 274.934 335.625 280.107 342.018 280.107C348.411 280.107 353.586 274.934 353.586 268.544C353.586 267.631 348.335 239.713 348.335 239.713H377.028L380.376 257.666C379.235 257.285 377.941 257.057 376.647 257.057C370.254 257.057 365.078 262.23 365.078 268.62C365.078 275.01 370.254 280.183 376.647 280.183C383.04 280.183 388.215 275.01 388.215 268.62C388.063 267.859 388.063 267.251 387.987 266.642Z" fill="#F75605"/>
</g>
<path d="M112.239 296.007C87.8038 296.007 67.9219 276.152 67.9219 251.581C67.9219 227.085 87.728 207.154 112.239 207.154C136.674 207.154 156.556 227.009 156.556 251.581C156.48 276.152 136.674 296.007 112.239 296.007Z" stroke="#43B7FF" stroke-width="1.5" stroke-miterlimit="10"/>
<path d="M134.018 230.128H142.669V274.935H81.8086V230.128H90.6113" stroke="#43B7FF" stroke-width="1.5" stroke-miterlimit="10"/>
<path d="M107.156 230.128H117.173" stroke="#43B7FF" stroke-width="1.5" stroke-miterlimit="10"/>
<path d="M112.239 233.779C104.878 226.4 92.8882 226.4 85.5273 233.779V271.207H139.027V233.779C131.59 226.4 119.6 226.4 112.239 233.779Z" stroke="#43B7FF" stroke-width="1.5" stroke-miterlimit="10"/>
<path d="M138.948 271.283C131.891 264.209 120.66 263.904 113.223 270.371V233.399H111.174V270.371C103.738 263.904 92.5066 264.209 85.4492 271.283H138.948Z" fill="#43B7FF"/>
<path d="M235.704 296.007C211.269 296.007 191.387 276.152 191.387 251.581C191.387 227.085 211.193 207.154 235.704 207.154C260.139 207.154 280.021 227.009 280.021 251.581C279.945 276.152 260.139 296.007 235.704 296.007Z" stroke="#43B7FF" stroke-width="1.5" stroke-miterlimit="10"/>
<path d="M209.98 231.345H261.279" stroke="#43B7FF" stroke-width="1.5" stroke-miterlimit="10"/>
<path d="M247.466 238.724H253.916C253.916 234.692 257.179 231.421 261.201 231.421H209.902C213.924 231.421 217.187 234.692 217.187 238.724H223.638V271.891H209.902V279.27H261.201V271.891H247.466V238.724ZM224.245 271.815C228.039 271.511 231.074 268.392 231.074 264.512V238.724H240.181V264.512C240.181 268.392 243.216 271.587 247.01 271.815H224.245Z" fill="#43B7FF"/>
<path d="M209.902 271.815V279.194H261.201V271.815C257.179 271.815 253.916 268.544 253.916 264.512V238.724C253.916 234.692 257.179 231.421 261.201 231.421V224.042H209.902V231.421C213.924 231.421 217.187 234.692 217.187 238.724V264.512C217.263 268.544 214 271.815 209.902 271.815Z" stroke="#43B7FF" stroke-width="1.5" stroke-miterlimit="10"/>
<path d="M235.63 82.8524C211.195 82.8524 191.312 62.9976 191.312 38.4262C191.312 13.9309 211.119 -6 235.63 -6C260.065 -6 279.947 13.8549 279.947 38.4262C279.947 62.9976 260.065 82.8524 235.63 82.8524Z" stroke="#43B7FF" stroke-width="1.5" stroke-miterlimit="10"/>
<path d="M248.91 34.0897L240.639 7.16016L235.63 12.9417L229.104 8.98589L226.145 16.0606L218.708 14.311L218.101 21.9182L210.512 22.5268L212.257 29.9818L205.2 32.9487L209.146 39.4909L203.379 44.5117L230.242 52.8035L248.91 34.0897Z" stroke="#43B7FF" stroke-width="1.5" stroke-miterlimit="10"/>
<path d="M247.315 35.7637L251.109 43.9034L249.971 45.1966L246.101 36.9808L243.672 39.3391L248.605 46.3377L247.542 47.6309L242.534 40.5562L240.182 42.9145L246.252 49.0003L244.962 49.9892L239.043 44.0556L236.691 46.3377L243.748 51.2824L242.61 52.4996L235.553 47.4788L233.124 49.9131L241.244 53.7928L240.106 55.086L231.91 51.1303L247.315 35.7637Z" fill="#43B7FF"/>
<path d="M256.424 60.3351C253.009 63.7584 247.47 63.7584 244.055 60.3351L239.426 55.6947L251.795 43.2949L256.424 47.9353C259.839 51.3586 259.839 56.9119 256.424 60.3351Z" stroke="#43B7FF" stroke-width="1.5" stroke-miterlimit="10"/>
<path d="M253.24 44.8L240.898 57.1719L243.045 59.3235L255.386 46.9516L253.24 44.8Z" fill="#43B7FF"/>
<path d="M359.094 82.9286C334.659 82.9286 314.777 63.0737 314.777 38.5024C314.777 14.0071 334.583 -5.92383 359.094 -5.92383C383.529 -5.92383 403.411 13.931 403.411 38.5024C403.411 62.9977 383.605 82.9286 359.094 82.9286Z" stroke="#43B7FF" stroke-width="1.5" stroke-miterlimit="10"/>
<path d="M357.956 8.37771V71.3656C347.104 70.757 338.453 61.7044 338.453 50.6739C338.453 47.631 339.136 44.6642 340.426 41.8495L340.502 41.6974C340.73 41.2409 340.957 40.8606 341.185 40.4041L357.956 8.37771ZM359.094 3.7373L340.198 39.8716C339.895 40.3281 339.667 40.8606 339.439 41.3931V41.4692C338.149 44.2838 337.391 47.4028 337.391 50.75C337.391 62.8455 347.18 72.5827 359.17 72.5827V3.7373H359.094Z" fill="#43B7FF"/>
<path d="M359.094 72.5827C371.16 72.5827 380.873 62.7694 380.873 50.75C380.873 47.4028 380.114 44.2838 378.824 41.4692V41.3931C378.596 40.8606 378.293 40.4041 377.989 39.8716L359.094 3.7373V72.5827Z" fill="#43B7FF"/>
<path d="M369.718 58.8135C373.615 58.8135 376.775 55.646 376.775 51.7388C376.775 47.8315 373.615 44.6641 369.718 44.6641C365.82 44.6641 362.66 47.8315 362.66 51.7388C362.66 55.646 365.82 58.8135 369.718 58.8135Z" fill="#F2F0ED"/>
<path d="M112.239 82.9286C87.8038 82.9286 67.9219 63.0737 67.9219 38.5024C67.9219 14.0071 87.728 -5.92383 112.239 -5.92383C136.674 -5.92383 156.556 13.931 156.556 38.5024C156.48 62.9977 136.674 82.9286 112.239 82.9286Z" stroke="#43B7FF" stroke-width="1.5" stroke-miterlimit="10"/>
<path d="M144.87 33.7103H138.875V22.7559H113.757V16.8223H110.721V22.7559H85.6031V33.7103H79.3047V47.099H85.6031V58.5099H138.875V47.099H144.87V33.7103Z" stroke="#43B7FF" stroke-width="1.5" stroke-miterlimit="10"/>
<path d="M112.238 17.2784C115.088 17.2784 117.398 14.9625 117.398 12.1055C117.398 9.24861 115.088 6.93262 112.238 6.93262C109.388 6.93262 107.078 9.24861 107.078 12.1055C107.078 14.9625 109.388 17.2784 112.238 17.2784Z" fill="#4DBFFF"/>
<path d="M101.844 46.8704C105.28 46.8704 108.066 44.0776 108.066 40.6325C108.066 37.1873 105.28 34.3945 101.844 34.3945C98.407 34.3945 95.6211 37.1873 95.6211 40.6325C95.6211 44.0776 98.407 46.8704 101.844 46.8704Z" fill="#4DBFFF"/>
<path d="M122.637 46.8704C126.073 46.8704 128.859 44.0776 128.859 40.6325C128.859 37.1873 126.073 34.3945 122.637 34.3945C119.2 34.3945 116.414 37.1873 116.414 40.6325C116.414 44.0776 119.2 46.8704 122.637 46.8704Z" fill="#4DBFFF"/>
<path d="M50.317 189.43C25.8819 189.43 6 169.575 6 145.003C6 120.508 25.8061 100.577 50.317 100.577C74.7521 100.577 94.6341 120.432 94.6341 145.003C94.6341 169.575 74.7521 189.43 50.317 189.43Z" stroke="#43B7FF" stroke-width="1.5" stroke-miterlimit="10"/>
<path d="M50.3194 167.673C71.6099 167.673 88.8693 157.558 88.8693 145.08C88.8693 132.602 71.6099 122.486 50.3194 122.486C29.0289 122.486 11.7695 132.602 11.7695 145.08C11.7695 157.558 29.0289 167.673 50.3194 167.673Z" stroke="#43B7FF" stroke-width="1.5" stroke-miterlimit="10"/>
<path d="M50.3156 164.478C61.0028 164.478 69.6664 155.793 69.6664 145.079C69.6664 134.366 61.0028 125.681 50.3156 125.681C39.6285 125.681 30.9648 134.366 30.9648 145.079C30.9648 155.793 39.6285 164.478 50.3156 164.478Z" fill="#43B7FF"/>
<path d="M174.165 100.653C149.73 100.653 129.848 120.508 129.848 145.08C129.848 169.575 149.654 189.506 174.165 189.506C198.6 189.506 218.482 169.651 218.482 145.08C218.406 120.508 198.6 100.653 174.165 100.653Z" stroke="#43B7FF" stroke-width="1.5" stroke-miterlimit="10"/>
<path d="M194.578 146.449C194.578 131.463 182.436 119.291 167.487 119.291H148.516V138.309C148.516 153.295 160.657 165.467 175.607 165.467H194.578V146.449Z" stroke="#43B7FF" stroke-width="1.5" stroke-miterlimit="10"/>
<path d="M160.135 129.067L158.203 131.004L198.984 171.885L200.915 169.948L160.135 129.067Z" fill="#43B7FF"/>
<path d="M297.93 189.43C273.495 189.43 253.613 169.575 253.613 145.003C253.613 120.508 273.419 100.577 297.93 100.577C322.366 100.577 342.248 120.432 342.248 145.003C342.248 169.575 322.441 189.43 297.93 189.43Z" stroke="#43B7FF" stroke-width="1.5" stroke-miterlimit="10"/>
<path d="M295.731 163.184L302.409 169.879L295.883 176.421L289.205 169.727L295.731 163.184ZM295.731 161.587L287.535 169.803L295.807 178.095L304.002 169.879L295.731 161.587Z" fill="#43B7FF"/>
<path d="M287.609 169.803L276.985 159.152C267.651 149.796 267.651 134.581 276.985 125.224C281.538 120.66 287.533 118.226 293.907 118.226C300.282 118.226 306.277 120.736 310.83 125.224L321.454 135.874L313.258 144.09L302.634 133.44C300.282 131.082 297.17 129.789 293.907 129.789C290.644 129.789 287.533 131.082 285.18 133.44C280.4 138.233 280.4 146.144 285.18 150.937L295.804 161.587L287.609 169.803Z" fill="#43B7FF"/>
<path d="M321.379 137.473L328.057 144.167L321.531 150.709L314.853 144.015L321.379 137.473ZM321.379 135.875L313.184 144.091L321.455 152.383L329.651 144.167L321.379 135.875Z" fill="#43B7FF"/>
<path d="M317.433 169.042L313.032 148.806L308.403 153.523L296.109 141.199L300.511 161.434L305.14 156.718L317.433 169.042Z" stroke="#43B7FF" stroke-width="1.5" stroke-miterlimit="10"/>
</g>
<defs>
<clipPath id="clip0">
<rect width="1030" height="284" fill="white"/>
</clipPath>
<clipPath id="clip1">
<rect width="719" height="302" fill="white" transform="translate(311 -6)"/>
</clipPath>
</defs>
</svg>
