<svg width="729" height="284" viewBox="0 0 729 284" fill="none" xmlns="http://www.w3.org/2000/svg">
<g clip-path="url(#clip0)">
<path d="M112.239 296.007C87.8038 296.007 67.9219 276.152 67.9219 251.581C67.9219 227.085 87.728 207.154 112.239 207.154C136.674 207.154 156.556 227.009 156.556 251.581C156.48 276.152 136.674 296.007 112.239 296.007Z" stroke="#43B7FF" stroke-width="1.5" stroke-miterlimit="10"/>
<path d="M134.018 230.128H142.669V274.935H81.8086V230.128H90.6113" stroke="#43B7FF" stroke-width="1.5" stroke-miterlimit="10"/>
<path d="M107.156 230.128H117.173" stroke="#43B7FF" stroke-width="1.5" stroke-miterlimit="10"/>
<path d="M112.239 233.779C104.878 226.4 92.8882 226.4 85.5273 233.779V271.207H139.027V233.779C131.59 226.4 119.6 226.4 112.239 233.779Z" stroke="#43B7FF" stroke-width="1.5" stroke-miterlimit="10"/>
<path d="M138.948 271.283C131.891 264.209 120.66 263.904 113.223 270.371V233.399H111.174V270.371C103.738 263.904 92.5066 264.209 85.4492 271.283H138.948Z" fill="#43B7FF"/>
<path d="M235.704 296.007C211.269 296.007 191.387 276.152 191.387 251.581C191.387 227.085 211.193 207.154 235.704 207.154C260.139 207.154 280.021 227.009 280.021 251.581C279.945 276.152 260.139 296.007 235.704 296.007Z" stroke="#43B7FF" stroke-width="1.5" stroke-miterlimit="10"/>
<path d="M209.98 231.345H261.279" stroke="#43B7FF" stroke-width="1.5" stroke-miterlimit="10"/>
<path d="M247.466 238.724H253.916C253.916 234.692 257.179 231.421 261.201 231.421H209.902C213.924 231.421 217.187 234.692 217.187 238.724H223.638V271.891H209.902V279.27H261.201V271.891H247.466V238.724ZM224.245 271.815C228.039 271.511 231.074 268.392 231.074 264.512V238.724H240.181V264.512C240.181 268.392 243.216 271.587 247.01 271.815H224.245Z" fill="#43B7FF"/>
<path d="M209.902 271.815V279.194H261.201V271.815C257.179 271.815 253.916 268.544 253.916 264.512V238.724C253.916 234.692 257.179 231.421 261.201 231.421V224.042H209.902V231.421C213.924 231.421 217.187 234.692 217.187 238.724V264.512C217.263 268.544 214 271.815 209.902 271.815Z" stroke="#43B7FF" stroke-width="1.5" stroke-miterlimit="10"/>
<path d="M235.63 82.8524C211.194 82.8524 191.312 62.9976 191.312 38.4262C191.312 13.9309 211.119 -6 235.63 -6C260.065 -6 279.947 13.8549 279.947 38.4262C279.947 62.9976 260.065 82.8524 235.63 82.8524Z" stroke="#43B7FF" stroke-width="1.5" stroke-miterlimit="10"/>
<path d="M248.91 34.0897L240.639 7.16016L235.63 12.9417L229.104 8.98589L226.145 16.0606L218.708 14.311L218.101 21.9182L210.512 22.5268L212.257 29.9818L205.2 32.9487L209.146 39.4909L203.379 44.5117L230.242 52.8035L248.91 34.0897Z" stroke="#43B7FF" stroke-width="1.5" stroke-miterlimit="10"/>
<path d="M247.315 35.7637L251.109 43.9034L249.971 45.1966L246.101 36.9808L243.672 39.3391L248.605 46.3377L247.542 47.6309L242.534 40.5562L240.182 42.9145L246.252 49.0003L244.962 49.9892L239.043 44.0556L236.691 46.3377L243.748 51.2824L242.61 52.4996L235.553 47.4788L233.124 49.9131L241.244 53.7928L240.106 55.086L231.91 51.1303L247.315 35.7637Z" fill="#43B7FF"/>
<path d="M256.424 60.3351C253.009 63.7584 247.47 63.7584 244.055 60.3351L239.426 55.6947L251.795 43.2949L256.424 47.9353C259.839 51.3586 259.839 56.9119 256.424 60.3351Z" stroke="#43B7FF" stroke-width="1.5" stroke-miterlimit="10"/>
<path d="M253.24 44.8L240.898 57.1719L243.045 59.3235L255.386 46.9516L253.24 44.8Z" fill="#43B7FF"/>
<path d="M359.094 82.9286C334.659 82.9286 314.777 63.0737 314.777 38.5024C314.777 14.0071 334.583 -5.92383 359.094 -5.92383C383.529 -5.92383 403.411 13.931 403.411 38.5024C403.411 62.9977 383.605 82.9286 359.094 82.9286Z" stroke="#43B7FF" stroke-width="1.5" stroke-miterlimit="10"/>
<path d="M357.956 8.37771V71.3656C347.104 70.757 338.453 61.7044 338.453 50.6739C338.453 47.631 339.136 44.6642 340.426 41.8495L340.502 41.6974C340.73 41.2409 340.957 40.8606 341.185 40.4041L357.956 8.37771ZM359.094 3.7373L340.198 39.8716C339.895 40.3281 339.667 40.8606 339.439 41.3931V41.4692C338.149 44.2838 337.391 47.4028 337.391 50.75C337.391 62.8455 347.18 72.5827 359.17 72.5827V3.7373H359.094Z" fill="#43B7FF"/>
<path d="M359.094 72.5827C371.16 72.5827 380.873 62.7694 380.873 50.75C380.873 47.4028 380.114 44.2838 378.824 41.4692V41.3931C378.596 40.8606 378.293 40.4041 377.989 39.8716L359.094 3.7373V72.5827Z" fill="#43B7FF"/>
<path d="M369.718 58.8135C373.615 58.8135 376.775 55.646 376.775 51.7388C376.775 47.8315 373.615 44.6641 369.718 44.6641C365.82 44.6641 362.66 47.8315 362.66 51.7388C362.66 55.646 365.82 58.8135 369.718 58.8135Z" fill="#F2F0ED"/>
<path d="M112.239 82.9286C87.8038 82.9286 67.9219 63.0737 67.9219 38.5024C67.9219 14.0071 87.728 -5.92383 112.239 -5.92383C136.674 -5.92383 156.556 13.931 156.556 38.5024C156.48 62.9977 136.674 82.9286 112.239 82.9286Z" stroke="#43B7FF" stroke-width="1.5" stroke-miterlimit="10"/>
<path d="M144.87 33.7103H138.875V22.7559H113.757V16.8223H110.721V22.7559H85.6031V33.7103H79.3047V47.099H85.6031V58.5099H138.875V47.099H144.87V33.7103Z" stroke="#43B7FF" stroke-width="1.5" stroke-miterlimit="10"/>
<path d="M112.238 17.2784C115.088 17.2784 117.398 14.9625 117.398 12.1055C117.398 9.24861 115.088 6.93262 112.238 6.93262C109.388 6.93262 107.078 9.24861 107.078 12.1055C107.078 14.9625 109.388 17.2784 112.238 17.2784Z" fill="#4DBFFF"/>
<path d="M101.844 46.8704C105.28 46.8704 108.066 44.0776 108.066 40.6325C108.066 37.1873 105.28 34.3945 101.844 34.3945C98.407 34.3945 95.6211 37.1873 95.6211 40.6325C95.6211 44.0776 98.407 46.8704 101.844 46.8704Z" fill="#4DBFFF"/>
<path d="M122.637 46.8704C126.073 46.8704 128.859 44.0776 128.859 40.6325C128.859 37.1873 126.073 34.3945 122.637 34.3945C119.2 34.3945 116.414 37.1873 116.414 40.6325C116.414 44.0776 119.2 46.8704 122.637 46.8704Z" fill="#4DBFFF"/>
<path d="M50.317 189.43C25.8819 189.43 6 169.575 6 145.003C6 120.508 25.8061 100.577 50.317 100.577C74.7521 100.577 94.6341 120.432 94.6341 145.003C94.6341 169.575 74.7521 189.43 50.317 189.43Z" stroke="#43B7FF" stroke-width="1.5" stroke-miterlimit="10"/>
<path d="M50.3194 167.673C71.6099 167.673 88.8693 157.558 88.8693 145.08C88.8693 132.602 71.6099 122.486 50.3194 122.486C29.0289 122.486 11.7695 132.602 11.7695 145.08C11.7695 157.558 29.0289 167.673 50.3194 167.673Z" stroke="#43B7FF" stroke-width="1.5" stroke-miterlimit="10"/>
<path d="M50.3156 164.478C61.0028 164.478 69.6664 155.793 69.6664 145.079C69.6664 134.366 61.0028 125.681 50.3156 125.681C39.6285 125.681 30.9648 134.366 30.9648 145.079C30.9648 155.793 39.6285 164.478 50.3156 164.478Z" fill="#43B7FF"/>
<path d="M174.165 100.653C149.73 100.653 129.848 120.508 129.848 145.08C129.848 169.575 149.654 189.506 174.165 189.506C198.6 189.506 218.482 169.651 218.482 145.08C218.406 120.508 198.6 100.653 174.165 100.653Z" stroke="#43B7FF" stroke-width="1.5" stroke-miterlimit="10"/>
<path d="M194.578 146.449C194.578 131.463 182.436 119.291 167.487 119.291H148.516V138.309C148.516 153.295 160.657 165.467 175.607 165.467H194.578V146.449Z" stroke="#43B7FF" stroke-width="1.5" stroke-miterlimit="10"/>
<path d="M160.135 129.067L158.203 131.004L198.984 171.885L200.915 169.948L160.135 129.067Z" fill="#43B7FF"/>
<path d="M297.93 189.43C273.495 189.43 253.613 169.575 253.613 145.003C253.613 120.508 273.419 100.577 297.93 100.577C322.366 100.577 342.248 120.432 342.248 145.003C342.248 169.575 322.441 189.43 297.93 189.43Z" stroke="#43B7FF" stroke-width="1.5" stroke-miterlimit="10"/>
<path d="M295.731 163.184L302.409 169.879L295.883 176.421L289.205 169.727L295.731 163.184ZM295.731 161.587L287.535 169.803L295.807 178.095L304.002 169.879L295.731 161.587Z" fill="#43B7FF"/>
<path d="M287.609 169.803L276.985 159.152C267.651 149.796 267.651 134.581 276.985 125.224C281.538 120.66 287.533 118.226 293.907 118.226C300.282 118.226 306.277 120.736 310.83 125.224L321.454 135.874L313.258 144.09L302.634 133.44C300.282 131.082 297.17 129.789 293.907 129.789C290.644 129.789 287.533 131.082 285.18 133.44C280.4 138.233 280.4 146.144 285.18 150.937L295.804 161.587L287.609 169.803Z" fill="#43B7FF"/>
<path d="M321.379 137.473L328.057 144.167L321.531 150.709L314.853 144.015L321.379 137.473ZM321.379 135.875L313.184 144.091L321.455 152.383L329.651 144.167L321.379 135.875Z" fill="#43B7FF"/>
<path d="M317.433 169.042L313.032 148.806L308.403 153.523L296.109 141.199L300.511 161.434L305.14 156.718L317.433 169.042Z" stroke="#43B7FF" stroke-width="1.5" stroke-miterlimit="10"/>
<path d="M482.559 296.007C458.124 296.007 438.242 276.152 438.242 251.581C438.242 227.085 458.048 207.154 482.559 207.154C506.994 207.154 526.876 227.009 526.876 251.581C526.876 276.152 507.07 296.007 482.559 296.007Z" fill="#00443F"/>
<path d="M467.685 239.561L483.773 229.595C489.692 225.868 497.432 226.781 502.365 231.725C507.297 236.67 508.208 244.277 504.565 250.287L494.7 266.49C488.098 277.369 473.073 279.195 464.043 270.218C455.164 261.241 456.909 246.255 467.685 239.561Z" fill="white"/>
<path d="M478.083 266.718C483.909 266.718 488.631 261.984 488.631 256.144C488.631 250.304 483.909 245.57 478.083 245.57C472.258 245.57 467.535 250.304 467.535 256.144C467.535 261.984 472.258 266.718 478.083 266.718Z" fill="#FFCB4A"/>
<path d="M606.024 296.007C581.589 296.007 561.707 276.152 561.707 251.581C561.707 227.085 581.513 207.154 606.024 207.154C630.459 207.154 650.341 227.009 650.341 251.581C650.341 276.152 630.459 296.007 606.024 296.007Z" fill="#37A564"/>
<path d="M605.873 280.945C616.728 280.945 625.527 272.123 625.527 261.242C625.527 250.36 616.728 241.539 605.873 241.539C595.018 241.539 586.219 250.36 586.219 261.242C586.219 272.123 595.018 280.945 605.873 280.945Z" fill="#F0C1F4"/>
<path d="M605.645 217.805V251.505H570.434L605.645 217.805Z" fill="#000099"/>
<path d="M636.966 239.779L616.23 223.141L610.967 229.733L631.702 246.371L636.966 239.779Z" fill="white"/>
<path d="M482.559 82.9286C458.124 82.9286 438.242 63.0737 438.242 38.5024C438.242 14.0071 458.048 -5.92383 482.559 -5.92383C506.994 -5.92383 526.876 13.931 526.876 38.5024C526.876 62.9977 507.07 82.9286 482.559 82.9286Z" fill="#37A564"/>
<path d="M492.501 24.0488C487.796 24.0488 483.926 20.3212 483.926 15.4526C483.926 10.584 487.796 6.85645 492.501 6.85645C497.282 6.85645 501.152 10.584 501.152 15.4526C501.152 20.3212 497.282 24.0488 492.501 24.0488Z" fill="white"/>
<path d="M472.239 24.0488C467.534 24.0488 463.664 20.3212 463.664 15.4526C463.664 10.584 467.534 6.85645 472.239 6.85645C477.02 6.85645 480.89 10.584 480.89 15.4526C480.89 20.3212 477.02 24.0488 472.239 24.0488Z" fill="white"/>
<path d="M488.177 67.4862V63.074C485.9 65.5844 481.574 68.4751 474.593 68.4751C465.411 68.4751 461.465 62.9979 461.465 56.1514V27.8525H476.187V49.8374C476.187 53.8693 478.311 55.3907 481.878 55.3907C485.141 55.3907 486.886 53.641 488.101 52.2717V27.8525H502.822V67.4862H488.177Z" fill="#F0C1F4"/>
<path d="M606.024 82.9286C581.589 82.9286 561.707 63.0737 561.707 38.5024C561.707 14.0071 581.513 -5.92383 606.024 -5.92383C630.459 -5.92383 650.341 13.931 650.341 38.5024C650.341 62.9977 630.459 82.9286 606.024 82.9286Z" fill="#000099"/>
<path d="M610.728 3.43262H601.242V21.3096H610.728V3.43262Z" fill="#43B7FF"/>
<path d="M630.231 51.9674L611.412 24.1249L611.336 24.0488H600.712L600.636 24.1249L581.816 51.9674V67.7904L606.024 32.0364L630.231 67.7904V51.9674Z" fill="white"/>
<path d="M606.024 36.8284C611.933 36.8284 616.724 32.0261 616.724 26.1022C616.724 20.1783 611.933 15.376 606.024 15.376C600.115 15.376 595.324 20.1783 595.324 26.1022C595.324 32.0261 600.115 36.8284 606.024 36.8284Z" fill="#F75605"/>
<path d="M669.391 189.43C644.956 189.43 625.074 169.575 625.074 145.003C625.074 120.508 644.88 100.577 669.391 100.577C693.826 100.577 713.708 120.432 713.708 145.003C713.708 169.575 693.902 189.43 669.391 189.43Z" fill="#00443F"/>
<path d="M675.882 112.642L671.16 117.376L697.024 143.303L701.746 138.569L675.882 112.642Z" fill="white"/>
<path d="M666.82 121.677L662.098 126.41L687.961 152.337L692.683 147.604L666.82 121.677Z" fill="white"/>
<path d="M650.671 137.885L645.949 142.618L671.813 168.545L676.535 163.812L650.671 137.885Z" fill="white"/>
<path d="M641.683 147L636.961 151.733L662.824 177.661L667.546 172.927L641.683 147Z" fill="white"/>
<path d="M672.273 142.189C666.809 136.712 666.809 127.735 672.273 122.182L678.951 115.487L673.032 109.554L666.354 116.248C662.104 120.508 659.752 126.137 659.752 132.147C659.752 138.157 662.104 143.786 666.354 148.046C671.817 153.524 671.817 162.5 666.354 168.053L659.676 174.748L665.595 180.681L672.273 173.987C681.075 165.239 681.075 150.937 672.273 142.189Z" fill="#37A564"/>
<path d="M639.794 154.74L633.875 148.807L640.553 142.112C649.28 133.364 663.546 133.364 672.273 142.112C674.929 144.775 678.496 146.22 682.214 146.22C686.008 146.22 689.499 144.775 692.155 142.112L698.833 135.418L704.752 141.352L698.074 148.046C693.825 152.306 688.209 154.664 682.214 154.664C676.219 154.664 670.604 152.306 666.354 148.046C660.89 142.569 651.936 142.569 646.396 148.046L639.794 154.74Z" fill="#F0C1F4"/>
<path d="M421.778 189.43C397.343 189.43 377.461 169.575 377.461 145.003C377.461 120.508 397.267 100.577 421.778 100.577C446.213 100.577 466.095 120.432 466.095 145.003C466.095 169.575 446.213 189.43 421.778 189.43Z" fill="#43B7FF"/>
<path d="M439.228 168.434L412.668 141.809L418.359 136.104L450.611 168.434C447.5 171.553 442.415 171.553 439.228 168.434Z" fill="white"/>
<path d="M439.228 121.574L412.668 148.199L418.359 153.905L450.611 121.574C447.5 118.379 442.415 118.379 439.228 121.574Z" fill="white"/>
<path d="M421.472 147.895C423.022 147.895 424.279 146.635 424.279 145.08C424.279 143.526 423.022 142.266 421.472 142.266C419.921 142.266 418.664 143.526 418.664 145.08C418.664 146.635 419.921 147.895 421.472 147.895Z" fill="#1A1A1A"/>
<path d="M406.447 143.102C398.707 143.102 392.484 136.788 392.484 129.105C392.484 121.345 398.783 115.107 406.447 115.107C414.112 115.107 420.41 121.421 420.41 129.105C420.41 136.788 414.112 143.102 406.447 143.102ZM406.447 122.41C402.729 122.41 399.769 125.377 399.769 129.105C399.769 132.832 402.729 135.799 406.447 135.799C410.166 135.799 413.125 132.832 413.125 129.105C413.125 125.377 410.09 122.41 406.447 122.41Z" fill="#FFCB4A"/>
<path d="M406.447 175.052C398.707 175.052 392.484 168.738 392.484 161.055C392.484 153.372 398.783 147.058 406.447 147.058C414.112 147.058 420.41 153.372 420.41 161.055C420.41 168.738 414.112 175.052 406.447 175.052ZM406.447 154.361C402.729 154.361 399.769 157.327 399.769 161.055C399.769 164.782 402.729 167.749 406.447 167.749C410.166 167.749 413.125 164.782 413.125 161.055C413.125 157.327 410.09 154.361 406.447 154.361Z" fill="#FFCB4A"/>
<path d="M729.493 82.9286C705.058 82.9286 685.176 63.0737 685.176 38.5024C685.176 14.0071 704.982 -5.92383 729.493 -5.92383C753.928 -5.92383 773.81 13.931 773.81 38.5024C773.734 62.9977 753.928 82.9286 729.493 82.9286Z" fill="#FFCB4A"/>
<path d="M729.492 63.8349C717.274 63.8349 706.878 55.1626 704.602 43.1432L714.163 41.3936C715.529 48.7726 721.979 54.0976 729.416 54.0976C736.929 54.0976 743.303 48.7726 744.669 41.3936L754.23 43.1432C752.106 55.1626 741.634 63.8349 729.492 63.8349Z" fill="#1A1A1A"/>
<path d="M717.656 35.3832C721.679 35.3832 724.941 32.1136 724.941 28.0803C724.941 24.047 721.679 20.7773 717.656 20.7773C713.633 20.7773 710.371 24.047 710.371 28.0803C710.371 32.1136 713.633 35.3832 717.656 35.3832Z" fill="#1A1A1A"/>
<path d="M545.622 189.43C521.187 189.43 501.305 169.575 501.305 145.003C501.305 120.508 521.111 100.577 545.622 100.577C570.057 100.577 589.939 120.432 589.939 145.003C589.863 169.575 570.057 189.43 545.622 189.43Z" fill="#F75605"/>
<path d="M567.345 140.697L548.672 121.978L519.589 151.132L538.262 169.851L567.345 140.697Z" fill="#FFCB4A"/>
<path d="M550.781 119.823C555.941 114.65 564.289 114.65 569.449 119.823C574.609 124.996 574.609 133.364 569.449 138.537L550.781 119.823Z" fill="#F0C1F4"/>
<path d="M565.125 142.569L546.457 123.855L550.782 119.823L569.45 138.537L565.125 142.569Z" fill="white"/>
<path d="M538.26 169.803L519.591 151.089L519.516 159.533L529.836 169.803H538.26Z" fill="white"/>
<path d="M529.838 169.803L519.517 159.533L519.441 169.803H529.838Z" fill="#1A1A1A"/>
<path d="M729.493 296.007C705.058 296.007 685.176 276.152 685.176 251.581C685.176 227.085 704.982 207.154 729.493 207.154C753.928 207.154 773.81 227.009 773.81 251.581C773.81 276.152 754.004 296.007 729.493 296.007Z" fill="#F75605"/>
<path d="M729.492 223.054C713.784 223.054 701.035 235.834 701.035 251.581C701.035 267.328 713.784 280.108 729.492 280.108C745.2 280.108 757.949 267.328 757.949 251.581C757.949 235.91 745.2 223.054 729.492 223.054ZM703.995 253.026H712.114C712.342 257.667 713.48 262.155 715.529 266.187H708.472C705.892 262.459 704.298 257.895 703.995 253.026ZM731.01 234.084V227.086C733.818 228.987 736.322 231.422 738.295 234.16H731.01V234.084ZM740.116 237.051C742.393 241.007 743.683 245.495 743.91 250.212H731.01V237.051H740.116ZM728.05 227.009V234.16H720.689C722.663 231.346 725.167 228.911 728.05 227.009ZM728.05 237.051V250.212H714.998C715.226 245.495 716.592 241.007 718.792 237.051H728.05ZM712.114 250.135H703.995C704.298 245.267 705.892 240.779 708.548 236.975H715.605C713.556 241.083 712.342 245.495 712.114 250.135ZM714.998 253.026H728.05V266.187H718.792C716.592 262.231 715.226 257.743 714.998 253.026ZM728.05 269.077V276.228C725.167 274.25 722.663 271.892 720.689 269.077H728.05ZM731.01 276.152V269.077H738.295C736.246 271.816 733.818 274.25 731.01 276.152ZM731.01 266.187V253.026H743.91C743.683 257.743 742.317 262.231 740.116 266.187H731.01ZM746.794 253.026H755.066C754.762 257.895 753.168 262.383 750.513 266.187H743.379C745.428 262.155 746.566 257.667 746.794 253.026ZM746.794 250.135C746.566 245.495 745.428 241.007 743.379 236.975H750.513C753.093 240.779 754.762 245.267 755.066 250.135H746.794ZM748.16 234.084H741.71C739.964 231.27 737.688 228.759 735.108 226.553C740.268 227.77 744.745 230.433 748.16 234.084ZM723.725 226.629C721.145 228.759 718.944 231.27 717.199 234.084H710.9C714.239 230.509 718.716 227.846 723.725 226.629ZM710.9 269.077H717.199C718.944 271.892 721.145 274.402 723.725 276.533C718.716 275.391 714.239 272.729 710.9 269.077ZM735.184 276.609C737.764 274.479 739.964 271.892 741.786 269.153H748.236C744.745 272.805 740.268 275.468 735.184 276.609Z" fill="#000099"/>
<path d="M359.094 296.007C334.659 296.007 314.777 276.152 314.777 251.581C314.777 227.085 334.583 207.154 359.094 207.154C383.529 207.154 403.411 227.009 403.411 251.581C403.411 276.152 383.605 296.007 359.094 296.007Z" fill="#F0C1F4"/>
<path d="M387.322 266.642C387.247 266.414 379.051 222.368 379.051 222.368H338.604L345.206 257.59C344.068 257.209 342.778 256.981 341.488 256.981C335.113 256.981 329.953 262.154 329.953 268.544C329.953 274.934 335.113 280.107 341.488 280.107C347.862 280.107 353.022 274.934 353.022 268.544C353.022 267.631 347.786 239.713 347.786 239.713H376.395L379.734 257.666C378.596 257.285 377.306 257.057 376.016 257.057C369.641 257.057 364.481 262.23 364.481 268.62C364.481 275.01 369.641 280.183 376.016 280.183C382.39 280.183 387.55 275.01 387.55 268.62C387.398 267.859 387.398 267.251 387.322 266.642Z" fill="#F75605"/>
</g>
<defs>
<clipPath id="clip0">
<rect width="729" height="284" fill="white"/>
</clipPath>
</defs>
</svg>
