<svg width="25" height="25" viewBox="0 0 25 25" fill="none" xmlns="http://www.w3.org/2000/svg">
<path d="M12.7772 2.19958C10.0603 2.19958 9.71963 2.2111 8.65263 2.25978C7.58785 2.30839 6.86064 2.47747 6.2243 2.72479C5.56646 2.98044 5.00858 3.3225 4.45245 3.87863C3.89631 4.43477 3.55425 4.99265 3.2986 5.65048C3.05129 6.28679 2.8822 7.014 2.8336 8.07877C2.78491 9.14578 2.77344 9.48645 2.77344 12.2033C2.77344 14.9201 2.78491 15.2608 2.8336 16.3278C2.8822 17.3926 3.05129 18.1198 3.2986 18.7561C3.55425 19.4139 3.89631 19.9718 4.45245 20.528C5.00858 21.0841 5.56646 21.4262 6.2243 21.6818C6.86064 21.9291 7.58785 22.0982 8.65263 22.1468C9.71963 22.1955 10.0603 22.207 12.7772 22.207C15.494 22.207 15.8347 22.1955 16.9017 22.1468C17.9664 22.0982 18.6936 21.9291 19.3299 21.6818C19.9878 21.4262 20.5457 21.0841 21.1018 20.528C21.658 19.9718 22 19.4139 22.2557 18.7561C22.503 18.1198 22.6721 17.3926 22.7206 16.3278C22.7693 15.2608 22.7808 14.9201 22.7808 12.2033C22.7808 9.48645 22.7693 9.14578 22.7206 8.07877C22.6721 7.014 22.503 6.28679 22.2557 5.65048C22 4.99265 21.658 4.43477 21.1018 3.87863C20.5457 3.3225 19.9878 2.98044 19.3299 2.72479C18.6936 2.47747 17.9664 2.30839 16.9017 2.25978C15.8347 2.2111 15.494 2.19958 12.7772 2.19958ZM12.7772 4.00209C15.4482 4.00209 15.7646 4.01226 16.8195 4.06038C17.7948 4.1049 18.3245 4.26787 18.677 4.40483C19.144 4.5863 19.4772 4.80312 19.8273 5.15316C20.1774 5.5032 20.3941 5.83648 20.5756 6.30339C20.7126 6.65589 20.8756 7.18558 20.92 8.16093C20.9682 9.21578 20.9784 9.53219 20.9784 12.2033C20.9784 14.8744 20.9682 15.1908 20.92 16.2456C20.8756 17.221 20.7126 17.7507 20.5756 18.1032C20.3941 18.5701 20.1774 18.9034 19.8273 19.2534C19.4772 19.6035 19.144 19.8203 18.677 20.0018C18.3245 20.1387 17.7948 20.3017 16.8195 20.3462C15.7648 20.3943 15.4484 20.4045 12.7772 20.4045C10.1058 20.4045 9.78952 20.3943 8.73479 20.3462C7.75944 20.3017 7.22975 20.1387 6.87724 20.0018C6.4103 19.8203 6.07705 19.6035 5.72697 19.2534C5.37693 18.9034 5.16011 18.5701 4.97868 18.1032C4.84168 17.7507 4.67871 17.221 4.6342 16.2456C4.58607 15.1908 4.5759 14.8744 4.5759 12.2033C4.5759 9.53219 4.58607 9.21578 4.6342 8.16093C4.67871 7.18558 4.84168 6.65589 4.97868 6.30339C5.16011 5.83648 5.37693 5.5032 5.72697 5.15316C6.07705 4.80312 6.4103 4.5863 6.87724 4.40483C7.22975 4.26787 7.75944 4.1049 8.73479 4.06038C9.78964 4.01226 10.106 4.00209 12.7772 4.00209Z" fill="#1A1A1A"/>
<path d="M12.7757 15.5368C10.9341 15.5368 9.44114 14.0439 9.44114 12.2022C9.44114 10.3606 10.9341 8.86765 12.7757 8.86765C14.6173 8.86765 16.1103 10.3606 16.1103 12.2022C16.1103 14.0439 14.6173 15.5368 12.7757 15.5368ZM12.7757 7.06519C9.93858 7.06519 7.63867 9.3651 7.63867 12.2022C7.63867 15.0393 9.93858 17.3393 12.7757 17.3393C15.6128 17.3393 17.9127 15.0393 17.9127 12.2022C17.9127 9.3651 15.6128 7.06519 12.7757 7.06519Z" fill="#1A1A1A"/>
<path d="M19.3189 6.86315C19.3189 7.52614 18.7814 8.06357 18.1184 8.06357C17.4554 8.06357 16.918 7.52614 16.918 6.86315C16.918 6.20015 17.4554 5.66272 18.1184 5.66272C18.7814 5.66272 19.3189 6.20015 19.3189 6.86315Z" fill="#1A1A1A"/>
</svg>
