<svg width="24" height="24" viewBox="0 0 24 24" fill="none" xmlns="http://www.w3.org/2000/svg">
<path fill-rule="evenodd" clip-rule="evenodd" d="M22.4202 5.93727C21.6779 6.25867 20.8701 6.48008 20.0173 6.59047C20.8917 6.07039 21.5559 5.27305 21.8668 4.29883C21.0582 4.77477 20.1502 5.11805 19.1981 5.30617C18.444 4.49844 17.3487 4 16.1302 4C13.8268 4 11.9437 5.84898 11.9437 8.11828C11.9437 8.45047 11.9998 8.76062 12.066 9.05969C8.57773 8.89351 5.48773 7.25484 3.42766 4.75273C3.07352 5.37281 2.85227 6.07039 2.85227 6.82312C2.85227 8.26242 3.60523 9.52445 4.71242 10.2553C4.02609 10.2443 3.38352 10.0558 2.81914 9.74586C2.81914 9.76812 2.81914 9.77922 2.81914 9.80125C2.81914 10.3326 2.91891 10.82 3.10672 11.2847C3.61672 12.5804 4.77945 13.5544 6.18602 13.8312C5.81992 13.9309 5.46578 13.9859 5.07844 13.9859C4.81266 13.9859 4.54672 13.9528 4.29156 13.8976C4.83469 15.5362 6.37375 16.7316 8.20156 16.7762C6.76148 17.8832 4.96758 18.5364 3.00734 18.5364C2.66383 18.5364 2.34313 18.514 2 18.481C3.86016 19.6437 6.06375 20.33 8.42281 20.33C14.9675 20.33 19.0097 15.8016 20.0612 11.0963C20.2502 10.2552 20.3381 9.42476 20.3381 8.60562C20.3381 8.42836 20.3381 8.24047 20.3381 8.07406C21.1466 7.48734 21.8668 6.75648 22.4202 5.93727Z" fill="#1A1A1A"/>
</svg>
